<?xml version="1.0" standalone="no"?>
<!DOCTYPE svg PUBLIC "-//W3C//DTD SVG 20010904//EN"
 "http://www.w3.org/TR/2001/REC-SVG-20010904/DTD/svg10.dtd">
<svg version="1.0" xmlns="http://www.w3.org/2000/svg"
 width="512.000000pt" height="512.000000pt" viewBox="0 0 512.000000 512.000000"
 preserveAspectRatio="xMidYMid meet">
<metadata>
Created by potrace 1.14, written by Peter Selinger 2001-2017
</metadata>
<g transform="translate(0.000000,512.000000) scale(0.100000,-0.100000)"
fill="#000000" stroke="none">
<path d="M1703 4406 l-283 -284 0 -851 0 -851 -285 0 -285 0 0 378 c0 356 -1
379 -20 409 -42 69 -33 68 -452 71 l-378 3 0 -1383 c0 -1523 -2 -1459 62
-1588 44 -87 161 -204 248 -248 131 -65 -6 -62 2293 -62 1148 0 2087 4 2087 8
0 5 24 16 53 25 118 37 254 158 316 280 58 115 61 147 61 730 l0 527 -215 0
-215 0 0 1015 c0 1139 5 1060 -73 1096 -40 17 -73 19 -562 19 -489 0 -522 -2
-562 -19 -78 -36 -78 -35 -81 -458 l-3 -373 -284 0 -285 0 0 638 0 637 -283
283 -282 282 -145 0 -145 0 -282 -284z m857 -711 l0 -146 -142 3 -143 3 -3
143 -3 142 146 0 145 0 0 -145z m1850 -425 l0 -140 -145 0 -145 0 0 140 0 140
145 0 145 0 0 -140z m-1850 -140 l0 -140 -145 0 -145 0 0 140 0 140 145 0 145
0 0 -140z m1850 -425 l0 -145 -145 0 -145 0 0 138 c0 76 3 142 7 145 3 4 69 7
145 7 l138 0 0 -145z m-2130 -145 l0 -140 -145 0 -145 0 0 140 0 140 145 0
145 0 0 -140z m1418 -137 l-3 -138 -142 -3 -143 -3 0 141 0 140 145 0 146 0
-3 -137z m-2278 -433 l0 -140 -140 0 -140 0 0 140 0 140 140 0 140 0 0 -140z
m1990 -140 l0 -140 -140 0 -140 0 0 140 0 140 140 0 140 0 0 -140z m-2272
-432 l3 -138 -146 0 -145 0 0 140 0 141 143 -3 142 -3 3 -137z m1987 -423 l0
-140 -137 -3 -138 -3 0 146 0 146 138 -3 137 -3 0 -140z m-1705 -145 l0 -140
-140 0 -140 0 0 140 0 140 140 0 140 0 0 -140z"/>
</g>
</svg>
